<?xml version="1.0" encoding="UTF-8" standalone="no"?>
<!DOCTYPE svg PUBLIC "-//W3C//DTD SVG 1.1//EN" "http://www.w3.org/Graphics/SVG/1.1/DTD/svg11.dtd">
<svg width="100%" height="100%" viewBox="0 0 675 975" version="1.1" xmlns="http://www.w3.org/2000/svg" xmlns:xlink="http://www.w3.org/1999/xlink" xml:space="preserve" xmlns:serif="http://www.serif.com/" style="fill-rule:evenodd;clip-rule:evenodd;stroke-linejoin:round;stroke-miterlimit:2;">
    <g transform="matrix(4.16667,0,0,4.16667,0,0)">
        <g transform="matrix(1,0,0,1,-61.85,-42.599)">
            <path d="M122.192,195.67L113.01,195.67L153.657,51.103L162.839,51.103L122.192,195.67ZM106.885,195.67L97.703,195.67L138.35,51.103L147.532,51.103L106.885,195.67ZM91.578,195.67L82.396,195.67L123.043,51.103L132.225,51.103L91.578,195.67ZM68.937,46.851L216.338,46.851L216.338,199.922L68.937,199.922L68.937,46.851ZM61.85,42.599L223.425,42.599L223.425,204.174L61.85,204.174L61.85,42.599ZM141.389,148.898L143.787,140.394L207.834,140.394L207.834,148.898L141.389,148.898ZM145.386,134.725L147.783,126.221L207.834,126.221L207.834,134.725L145.386,134.725ZM137.393,163.071L139.791,154.567L207.834,154.567L207.834,163.071L137.393,163.071Z" style="fill:rgb(194,189,163);"/>
        </g>
        <g transform="matrix(1,0,0,1,-61.85,-42.599)">
            <path d="M91.684,259.865L83.555,259.865L87.619,239.083L91.684,259.865ZM114.076,276.583L99.276,225.433L77.42,225.433L62.39,276.583L80.028,276.583L81.408,270.678L93.754,270.678L95.211,276.583L114.076,276.583ZM150.264,276.583L148.577,262.702L135.923,262.702L135.923,225.433L118.286,225.433L118.286,276.583L150.264,276.583ZM198.182,250.97C198.182,226.124 189.823,225.433 171.955,225.433L155.545,225.433L155.545,276.583L171.955,276.583C189.823,276.583 198.182,275.892 198.182,250.97ZM180.467,250.97C180.467,260.785 180.237,265.463 174.563,265.463L173.106,265.463L173.106,236.553L174.563,236.553C180.237,236.553 180.467,241.307 180.467,250.97ZM222.098,276.583L222.098,225.433L204.46,225.433L204.46,276.583L222.098,276.583Z" style="fill:rgb(194,189,163);"/>
        </g>
    </g>
</svg>
