<?xml version="1.0" encoding="UTF-8" standalone="no"?>
<!DOCTYPE svg PUBLIC "-//W3C//DTD SVG 1.1//EN" "http://www.w3.org/Graphics/SVG/1.1/DTD/svg11.dtd">
<svg width="100%" height="100%" viewBox="0 0 1184 288" version="1.1" xmlns="http://www.w3.org/2000/svg" xmlns:xlink="http://www.w3.org/1999/xlink" xml:space="preserve" xmlns:serif="http://www.serif.com/" style="fill-rule:evenodd;clip-rule:evenodd;stroke-linejoin:round;stroke-miterlimit:2;">
    <g transform="matrix(4.16667,0,0,4.16667,-236.224,-191.09)">
        <g id="Calque-1" serif:id="Calque 1">
            <g>
                <g transform="matrix(1,0,0,1,109.262,92.1255)">
                    <path d="M0,-24.172C-1.164,-25.337 -1.164,-27.225 0,-28.388C1.165,-29.553 3.052,-29.553 4.216,-28.388C5.38,-27.224 5.38,-25.337 4.217,-24.172C3.052,-23.009 1.165,-23.008 0,-24.172M3.85,-4.822C8.917,-13.009 10.686,-26.014 10.686,-26.014L8.72,-26.868C8.463,-26.953 8.378,-27.209 8.634,-27.466L10.087,-29.26C9.146,-31.055 5.9,-33.96 1.115,-33.96C-1.726,-33.96 -4.207,-33.2 -6.439,-31.743C-6.439,-31.743 -9.686,-29.541 -14.414,-25.453C-19.858,-20.744 -27.27,-13.531 -33.949,-4.296C-34.131,-4.041 -33.916,-3.712 -33.659,-3.712L-25.03,-3.712C-19.391,-3.712 -12.043,-4.738 -4.438,-12.77C-4.268,-12.941 -4.12,-12.96 -3.95,-12.875C-3.778,-12.788 -3.755,-12.599 -3.841,-12.428C-5.037,-9.523 -8.026,-3.627 -13.495,-0.125L-6.147,-0.125C-1.353,-0.125 2.331,-2.445 3.85,-4.822M-3.596,5.065L2.155,21.237L18.204,21.237C14.871,11.327 11.283,2.012 7.951,-6.531C5.173,-0.796 2.542,2.088 -3.596,5.065M-52.568,21.237L-36.335,21.237L-30.84,4.063L-46.646,4.063C-48.526,9.19 -50.518,14.829 -52.568,21.237M-30.584,-15.59L-22.381,-22.339C-20.672,-27.038 -18.878,-31.823 -16.999,-35.839C-16.059,-33.703 -15.187,-31.563 -14.246,-29.256C-9.74,-32.952 -6.982,-35.16 -3.259,-36.215C-5.565,-41.256 -7.173,-44.726 -7.942,-46.264L-26.141,-46.264C-27.679,-43.017 -33.489,-30.969 -40.238,-14.65L-33.659,-14.65C-32.464,-14.65 -31.438,-14.82 -30.584,-15.59M171.641,8.678C170.445,10.045 168.479,11.498 165.233,11.498C161.645,11.498 159.681,8.166 159.681,1.758C159.681,-6.101 161.816,-10.031 166.089,-10.031C168.565,-10.031 169.847,-9.861 171.641,-9.433L171.641,8.678ZM146.146,2.27C146.146,16.112 151.272,22.092 161.183,22.092C167.248,22.092 171.434,20.041 173.741,16.709L174.424,21.237L185.274,21.237L185.274,-18.063C180.917,-19.429 175.962,-20.625 166.649,-20.625C153.408,-20.625 146.146,-12.51 146.146,2.27M217.226,-20.625C210.306,-20.625 206.291,-18.49 203.386,-15.243L202.532,-19.771L191.768,-19.771L191.768,21.237L205.095,21.237L205.095,-7.212C206.206,-8.58 209.109,-10.031 211.502,-10.031C215.432,-10.031 217.653,-7.896 217.653,-4.05L217.653,21.237L230.895,21.237L230.895,-5.845C230.895,-15.756 226.453,-20.625 217.226,-20.625M127.692,-20.625C122.225,-20.625 118.637,-19.344 115.902,-17.122L115.902,-35.064L102.233,-35.064L102.233,21.237L115.561,21.237L115.561,-7.212C116.672,-8.58 119.577,-10.031 121.969,-10.031C125.898,-10.031 128.12,-7.896 128.12,-4.05L128.12,21.237L141.447,21.237L141.447,-5.845C141.447,-15.756 137.005,-20.625 127.692,-20.625M86.893,10.729C80.314,10.729 76.896,6.627 76.896,0.391C76.896,-5.589 80.314,-9.263 86.807,-9.263C90.31,-9.263 93.129,-8.324 95.606,-6.699L97.485,-17.892C93.897,-19.429 90.054,-20.625 83.561,-20.625C70.318,-20.625 63.057,-13.022 63.057,0.905C63.057,14.914 69.892,22.092 83.219,22.092C89.626,22.092 95.777,20.127 98.34,18.416L96.46,7.995C93.471,9.534 90.566,10.729 86.893,10.729M45.03,8.678C43.92,10.045 41.016,11.498 38.623,11.498C34.693,11.498 32.472,9.362 32.472,5.518L32.472,-19.771L19.145,-19.771L19.145,7.311C19.145,17.221 23.587,22.092 32.898,22.092C39.819,22.092 43.834,19.955 46.738,16.709L47.594,21.237L58.358,21.237L58.358,-19.771L45.03,-19.771L45.03,8.678Z" style="fill:rgb(194,189,163);fill-rule:nonzero;"/>
                </g>
                <g transform="matrix(1,0,0,1,125.329,113.07)">
                    <path d="M0,-50.204L-5.98,-50.204L-7.434,-48.41C-7.689,-48.153 -7.605,-47.897 -7.348,-47.812L-5.382,-46.958L0.171,-49.52C0.514,-49.691 0.428,-50.204 0,-50.204M-22.215,-21.069L-29.562,-21.069C-31.442,-19.957 -32.04,-19.616 -34.689,-18.59C-34.878,-18.516 -34.945,-18.334 -34.859,-18.077L-28.296,0.293L-24.535,0.293L-30.561,-16.539C-26.645,-16.539 -17.286,-17.58 -12.218,-25.766C-13.736,-23.389 -17.42,-21.069 -22.215,-21.069M-11.851,-47.354C-12.397,-46.808 -13.283,-46.808 -13.829,-47.354C-14.375,-47.9 -14.375,-48.786 -13.829,-49.332C-13.283,-49.879 -12.397,-49.879 -11.852,-49.332C-13.016,-50.497 -14.902,-50.497 -16.067,-49.332C-17.231,-48.169 -17.231,-46.281 -16.067,-45.116C-14.902,-43.952 -13.016,-43.953 -11.851,-45.116C-10.688,-46.281 -10.688,-48.168 -11.852,-49.332C-11.305,-48.786 -11.305,-47.9 -11.851,-47.354M-26.23,-14.063L-21.105,0.293L-17.344,0.293L-22.727,-14.744C-23.752,-14.491 -24.949,-14.233 -26.23,-14.063M-21.17,-31.957C-20.768,-32.563 -20.384,-33.184 -20.018,-33.819C-20.187,-33.904 -20.335,-33.885 -20.506,-33.714C-28.11,-25.682 -35.458,-24.657 -41.098,-24.657L-49.727,-24.657C-49.983,-24.657 -50.198,-24.985 -50.017,-25.241C-43.337,-34.475 -35.926,-41.688 -30.481,-46.397L-44.942,-34.311C-46.053,-33.372 -47.42,-32.774 -49.3,-32.774L-67.499,-32.774C-68.012,-32.774 -67.841,-32.347 -67.756,-32.091C-66.474,-28.16 -63.056,-24.657 -57.075,-24.657L-61.347,-20.299C-61.518,-20.129 -61.518,-19.702 -61.091,-19.702L-44.856,-19.702C-33.121,-19.702 -25.906,-24.801 -21.17,-31.957" style="fill:rgb(194,189,163);fill-rule:nonzero;"/>
                </g>
            </g>
        </g>
    </g>
</svg>
