<?xml version="1.0" encoding="UTF-8" standalone="no"?>
<!DOCTYPE svg PUBLIC "-//W3C//DTD SVG 1.1//EN" "http://www.w3.org/Graphics/SVG/1.1/DTD/svg11.dtd">
<svg width="100%" height="100%" viewBox="0 0 280 280" version="1.1" xmlns="http://www.w3.org/2000/svg" xmlns:xlink="http://www.w3.org/1999/xlink" xml:space="preserve" xmlns:serif="http://www.serif.com/" style="fill-rule:evenodd;clip-rule:evenodd;stroke-linejoin:round;stroke-miterlimit:2;">
    <g>
        <g transform="matrix(1.03286,0,0,1.03286,-4.60094,-5.05164)">
            <path d="M246.5,85.25C246.5,55.861 222.639,32 193.25,32L86.75,32C57.361,32 33.5,55.861 33.5,85.25L33.5,191.75C33.5,221.139 57.361,245 86.75,245L193.25,245C222.639,245 246.5,221.139 246.5,191.75L246.5,85.25ZM231.5,84.356C231.5,63.739 214.761,47 194.144,47L85.856,47C65.239,47 48.5,63.739 48.5,84.356L48.5,192.644C48.5,213.261 65.239,230 85.856,230L194.144,230C214.761,230 231.5,213.261 231.5,192.644L231.5,84.356Z" style="fill:rgb(194,189,163);"/>
        </g>
        <g transform="matrix(1.03286,0,0,1.03286,-4.60094,-5.05164)">
            <path d="M217.5,92.641C217.5,75.178 203.322,61 185.859,61L94.141,61C76.678,61 62.5,75.178 62.5,92.641L62.5,184.359C62.5,201.822 76.678,216 94.141,216L185.859,216C203.322,216 217.5,201.822 217.5,184.359L217.5,92.641ZM140,97.5C162.629,97.5 181,115.871 181,138.5C181,161.129 162.629,179.5 140,179.5C117.371,179.5 99,161.129 99,138.5C99,115.871 117.371,97.5 140,97.5ZM140,111.5C154.902,111.5 167,123.598 167,138.5C167,153.402 154.902,165.5 140,165.5C125.098,165.5 113,153.402 113,138.5C113,123.598 125.098,111.5 140,111.5ZM187,80.5C193.071,80.5 198,85.429 198,91.5C198,97.571 193.071,102.5 187,102.5C180.929,102.5 176,97.571 176,91.5C176,85.429 180.929,80.5 187,80.5Z" style="fill:rgb(194,189,163);"/>
        </g>
    </g>
</svg>
