<?xml version="1.0" encoding="UTF-8" standalone="no"?>
<!DOCTYPE svg PUBLIC "-//W3C//DTD SVG 1.1//EN" "http://www.w3.org/Graphics/SVG/1.1/DTD/svg11.dtd">
<svg width="100%" height="100%" viewBox="0 0 734 213" version="1.1" xmlns="http://www.w3.org/2000/svg" xmlns:xlink="http://www.w3.org/1999/xlink" xml:space="preserve" xmlns:serif="http://www.serif.com/" style="fill-rule:evenodd;clip-rule:evenodd;stroke-linejoin:round;stroke-miterlimit:2;">
    <g transform="matrix(4.16667,0,0,4.16667,-36.5135,-299.079)">
        <g>
            <path d="M22.247,113.573L43.644,113.573C43.894,113.573 43.894,113.698 43.644,113.823C41.266,114.95 37.763,118.453 37.763,118.453C35.385,120.831 33.508,122.332 29.379,122.332L8.857,122.332C8.732,122.332 8.732,122.082 8.857,122.082C11.11,120.831 14.488,117.327 14.488,117.327C15.865,115.7 18.743,113.573 22.247,113.573Z" style="fill:rgb(194,189,163);"/>
            <path d="M162.895,113.573L184.417,113.573C184.542,113.573 184.542,113.698 184.417,113.823C181.914,114.95 178.536,118.453 178.536,118.453C176.033,120.831 174.156,122.332 170.152,122.332L149.631,122.332C149.505,122.332 149.505,122.082 149.631,122.082C151.883,120.831 155.261,117.327 155.261,117.327C156.638,115.7 159.391,113.573 162.895,113.573Z" style="fill:rgb(194,189,163);"/>
            <path d="M57.408,113.573L78.806,113.573C79.056,113.573 79.056,113.698 78.806,113.823C76.429,114.95 72.925,118.453 72.925,118.453C70.547,120.831 68.67,122.332 64.541,122.332L44.144,122.332C43.894,122.332 43.894,122.082 44.019,122.082C46.272,120.831 49.65,117.327 49.65,117.327C51.027,115.7 53.905,113.573 57.408,113.573Z" style="fill:rgb(194,189,163);"/>
            <path d="M92.57,113.573L113.968,113.573C114.218,113.573 114.218,113.698 113.968,113.823C111.591,114.95 108.087,118.453 108.087,118.453C105.709,120.831 103.832,122.332 99.828,122.332L79.307,122.332C79.182,122.332 79.182,122.082 79.182,122.082C81.559,120.831 84.812,117.327 84.812,117.327C86.189,115.7 89.067,113.573 92.57,113.573Z" style="fill:rgb(194,189,163);"/>
            <path d="M127.733,113.573L149.255,113.573C149.38,113.573 149.38,113.698 149.13,113.823C146.753,114.95 143.249,118.453 143.249,118.453C140.871,120.831 138.994,122.332 134.99,122.332L114.469,122.332C114.343,122.332 114.343,122.082 114.469,122.082C116.721,120.831 120.099,117.327 120.099,117.327C121.351,115.7 124.229,113.573 127.733,113.573Z" style="fill:rgb(194,189,163);"/>
            <path d="M133.614,71.779C120.099,71.779 111.09,78.787 111.09,89.423C111.09,99.183 119.349,105.69 131.612,105.69C135.616,105.69 139.12,105.189 143.249,104.063L143.249,95.93C140.371,99.183 136.867,100.434 133.113,100.434C125.856,100.434 120.85,95.679 120.85,88.672C120.85,81.79 125.981,76.784 133.238,76.784C137.117,76.784 140.246,78.286 142.749,80.914L142.749,72.655C140.12,72.154 136.867,71.779 133.614,71.779Z" style="fill:rgb(194,189,163);"/>
            <path d="M32.757,77.535C37.763,77.535 43.769,78.536 46.272,80.663L46.272,72.905L10.734,72.905L10.734,80.663C13.237,78.536 18.618,77.66 24.374,77.66L24.374,98.933C24.374,102.061 24.123,102.937 22.872,104.564L34.259,104.564C33.008,102.937 32.757,102.061 32.757,98.933L32.757,77.535Z" style="fill:rgb(194,189,163);"/>
            <path d="M69.046,85.168C67.044,85.919 63.29,86.044 61.413,86.044L58.41,86.044L58.41,77.66L62.414,77.66C66.043,77.66 72.174,78.411 74.551,80.538L74.551,72.905L48.649,72.905C49.901,74.407 50.151,75.408 50.151,78.411L50.151,98.933C50.151,102.061 49.901,102.937 48.774,104.564L76.303,104.564L76.303,96.806C72.549,99.684 65.292,99.684 62.414,99.684L58.41,99.684L58.41,90.799L61.288,90.799C63.29,90.799 66.919,91.049 69.046,91.8L69.046,85.168Z" style="fill:rgb(194,189,163);"/>
            <path d="M107.461,73.906C103.332,72.53 97.951,71.779 93.822,71.779C86.314,71.779 79.056,74.156 79.056,82.165C79.056,95.93 101.58,88.672 101.58,97.181C101.58,99.934 97.576,101.06 94.322,101.06C88.566,101.06 84.562,100.059 79.557,96.806L79.557,103.813C83.311,105.064 88.441,105.815 93.947,105.815C101.705,105.815 108.963,103.563 108.963,95.429C108.963,80.914 86.564,87.421 86.564,80.413C86.564,77.535 90.193,76.534 93.321,76.534C98.577,76.534 104.333,78.161 107.461,81.289L107.461,73.906Z" style="fill:rgb(194,189,163);"/>
            <path d="M165.272,72.28C153.134,72.28 144.5,79.287 144.5,89.172C144.5,98.933 152.258,105.314 163.645,105.314C175.908,105.314 184.417,98.557 184.417,88.547C184.417,78.787 176.659,72.28 165.272,72.28ZM164.396,100.56C157.889,100.56 153.76,95.304 153.76,88.797C153.76,82.29 157.889,77.035 164.396,77.035C170.778,77.035 175.032,82.29 175.032,88.797C175.032,95.304 170.778,100.56 164.396,100.56Z" style="fill:rgb(194,189,163);"/>
        </g>
    </g>
</svg>
